<svg xmlns="http://www.w3.org/2000/svg" viewBox="0 0 141 30"><path fill="#2e3092" fill-rule="nonzero" d="M137.85 4.84C137.3 5.12 136.77 5.32 136.27 5.46C135.77 5.59 135.26 5.65 134.74 5.65C134.07 5.65 133.39 5.56 132.67 5.39C131.96 5.21 131.18 4.95 130.34 4.58C129.8 5.38 129.23 5.99 128.62 6.41C128.02 6.83 127.43 7.05 126.86 7.05C126.35 7.05 125.94 6.9 125.64 6.63C125.33 6.35 125.18 5.97 125.18 5.5C125.18 4.55 125.65 3.75 126.58 3.08C127.51 2.4 128.74 2.02 130.24 1.93C130.32 1.69 130.42 1.38 130.53 1C130.78 0.14 131.05 -0.29 131.31 -0.29C131.42 -0.29 131.51 -0.24 131.6 -0.13C131.69 -0.03 131.73 0.09 131.73 0.24C131.73 0.33 131.69 0.53 131.62 0.82C131.54 1.11 131.42 1.52 131.26 2.07C131.8 2.09 132.63 2.23 133.77 2.5C134.91 2.77 135.78 2.9 136.39 2.9C137.02 2.9 137.71 2.79 138.46 2.59C139.21 2.38 139.65 2.27 139.77 2.27C140.07 2.27 140.29 2.34 140.43 2.47C140.56 2.61 140.63 2.81 140.63 3.09C140.63 3.29 140.48 3.63 140.18 4.11C139.87 4.58 139.47 5.09 138.98 5.65C137.75 6.99 135.53 8.88 132.33 11.31C129.14 13.73 126.87 15.52 125.53 16.66C123.28 18.51 121.36 20.19 119.79 21.7C118.22 23.22 116.91 24.63 115.87 25.92C115.6 26.25 115.25 26.71 114.81 27.28C113.87 28.56 113.15 29.19 112.64 29.19L110.94 29.19C110.74 29.19 110.56 29.15 110.41 29.06C110.25 28.98 110.18 28.88 110.18 28.77C110.18 28.06 110.93 26.75 112.4 24.83C113.87 22.92 115.69 21.09 117.85 19.32C119.83 17.72 122.81 15.68 126.81 13.22C128.45 12.19 129.66 11.43 130.45 10.92C132.05 9.84 133.46 8.81 134.65 7.82C135.84 6.85 136.92 5.85 137.85 4.84M129.43 4.16C129.37 4.16 129.28 4.15 129.17 4.13C129.04 4.12 128.95 4.11 128.9 4.11C128.31 4.11 127.8 4.24 127.38 4.5C126.96 4.76 126.75 5.08 126.75 5.45C126.75 5.55 126.8 5.63 126.9 5.68C127 5.73 127.16 5.76 127.38 5.76C127.73 5.76 128.09 5.62 128.45 5.33C128.82 5.04 129.15 4.65 129.43 4.16M91.51 26.42C92.23 26.05 92.9 25.78 93.51 25.6C94.14 25.43 94.72 25.34 95.26 25.34C96.13 25.34 97.25 25.66 98.61 26.27C99.98 26.89 100.9 27.2 101.39 27.2C102.24 27.2 103.19 26.84 104.23 26.13C105.27 25.41 105.86 25.06 105.99 25.06C106.21 25.07 106.36 25.12 106.47 25.2C106.57 25.28 106.63 25.4 106.63 25.55C106.63 25.73 106.55 25.91 106.41 26.08C106.28 26.25 106.01 26.47 105.63 26.73L103.79 27.91C102.91 28.5 102.08 28.93 101.32 29.18C100.56 29.44 99.78 29.56 98.98 29.56C98 29.56 96.84 29.28 95.51 28.7C94.18 28.14 93.27 27.85 92.8 27.85C92.27 27.85 91.63 28.08 90.86 28.52C90.09 28.97 89.56 29.19 89.26 29.19C89.11 29.19 88.97 29.11 88.86 28.94C88.74 28.78 88.68 28.56 88.66 28.27C88.66 27.93 88.83 27.44 89.16 26.83C89.49 26.2 89.9 25.63 90.39 25.11C91.87 23.54 95.66 21.36 101.76 18.56C103.2 17.9 104.31 17.39 105.08 17.02C106.42 16.39 107.76 15.56 109.09 14.53C110.43 13.5 111.76 12.28 113.06 10.86C114.32 9.54 115.26 8.38 115.89 7.39C116.52 6.39 116.83 5.56 116.83 4.9C116.83 4.25 116.65 3.76 116.28 3.42C115.91 3.08 115.39 2.91 114.69 2.91C113.85 2.91 112.9 3.19 111.84 3.75C110.76 4.3 109.5 5.2 108.04 6.41C106.13 7.99 104.84 9.17 104.16 9.99C103.48 10.8 103.14 11.51 103.14 12.1C103.14 12.48 103.24 12.77 103.43 12.95C103.62 13.13 103.94 13.22 104.37 13.22C105.28 13.22 106.33 12.85 107.54 12.09C108.74 11.33 109.87 10.31 110.92 9.03C111.32 8.57 111.72 7.93 112.12 7.15C112.52 6.37 112.84 5.97 113.06 5.97C113.22 5.97 113.34 6.03 113.43 6.13C113.52 6.23 113.56 6.39 113.56 6.57C113.56 6.92 113.45 7.34 113.2 7.84C112.97 8.34 112.63 8.86 112.2 9.4C111.03 10.88 109.71 12.09 108.24 13.02C106.78 13.94 105.51 14.4 104.43 14.4C103.44 14.4 102.68 14.13 102.15 13.61C101.6 13.07 101.34 12.32 101.34 11.34C101.34 10.53 101.56 9.68 102.01 8.78C102.45 7.89 103.1 6.98 103.95 6.07C105.28 4.68 106.78 3.59 108.44 2.8C110.11 2.02 111.76 1.62 113.38 1.62C115.02 1.62 116.27 2 117.14 2.75C118 3.5 118.43 4.57 118.43 5.97C118.43 8.01 117.68 9.97 116.17 11.85C114.66 13.72 112.59 15.27 109.95 16.49C108.22 17.28 106.1 18.17 103.59 19.18C101.08 20.19 99.44 20.86 98.69 21.2C96.46 22.23 94.86 23.13 93.88 23.87C92.92 24.61 92.13 25.46 91.51 26.42M88.39 16.31C86.3 17.9 84.62 19.01 83.37 19.65C82.11 20.28 81.02 20.61 80.09 20.61C79.21 20.61 78.51 20.34 78 19.81C77.49 19.27 77.24 18.55 77.24 17.62C77.24 16.28 77.63 14.8 78.43 13.17C79.22 11.54 80.36 9.92 81.82 8.27C83.71 6.14 85.67 4.5 87.71 3.35C89.76 2.19 91.7 1.62 93.55 1.62C94.67 1.62 95.54 1.92 96.16 2.5C96.78 3.09 97.09 3.9 97.09 4.95C97.09 6.43 96.56 8.26 95.51 10.44C94.45 12.63 93 14.84 91.15 17.08C89.75 18.76 88.29 20.32 86.78 21.72C85.27 23.13 83.69 24.4 82.04 25.56C79.99 26.97 78.21 28.01 76.7 28.68C75.19 29.34 73.87 29.67 72.74 29.67C71.43 29.67 70.39 29.31 69.62 28.6C68.86 27.88 68.47 26.92 68.47 25.71C68.47 24.61 68.8 23.64 69.46 22.82C70.13 21.99 70.89 21.57 71.74 21.57C72.23 21.57 72.64 21.72 72.97 22.01C73.29 22.29 73.45 22.65 73.45 23.09C73.45 23.65 73.23 24.1 72.8 24.44C72.36 24.78 71.77 24.95 71.04 24.95L70.07 24.95C69.93 24.95 69.81 25.06 69.73 25.26C69.64 25.48 69.6 25.76 69.6 26.13C69.6 26.83 69.86 27.38 70.37 27.78C70.88 28.18 71.59 28.38 72.48 28.38C74.31 28.38 76.55 27.38 79.21 25.37C81.86 23.36 84.93 20.35 88.39 16.31M90.07 14.45C91.8 12.11 93.14 10.06 94.1 8.3C95.06 6.54 95.54 5.22 95.54 4.37C95.54 3.79 95.42 3.37 95.17 3.1C94.91 2.83 94.52 2.69 93.97 2.69C93.07 2.69 91.73 3.34 89.95 4.63C88.18 5.92 86.36 7.63 84.5 9.74C82.82 11.61 81.5 13.31 80.55 14.86C79.6 16.4 79.12 17.58 79.12 18.41C79.12 18.79 79.2 19.06 79.35 19.2C79.5 19.35 79.74 19.43 80.09 19.43C80.69 19.43 81.34 19.27 82.05 18.97C82.75 18.67 83.6 18.15 84.59 17.43C85.56 16.79 86.51 16.02 87.44 15.14C88.38 14.24 88.91 13.8 89.05 13.8C89.19 13.8 89.35 13.85 89.54 13.96C89.72 14.08 89.89 14.24 90.07 14.45M70.96 10.43C68.27 12.72 66.05 14.47 64.3 15.64C62.55 16.81 61.29 17.39 60.56 17.39C60.37 17.39 60.23 17.36 60.13 17.3C60.03 17.24 59.99 17.15 59.99 17.02C59.99 16.69 60.22 16.41 60.7 16.18C60.77 16.15 60.81 16.12 60.83 16.1C61.95 15.56 63.14 14.83 64.42 13.9C65.71 12.98 67.28 11.69 69.15 10.06C69.77 9.51 70.62 8.76 71.72 7.81C76.43 3.69 79.28 1.62 80.25 1.62C80.48 1.62 80.67 1.67 80.81 1.76C80.97 1.86 81.04 1.98 81.04 2.12C81.04 2.42 80.58 3.03 79.68 3.98C79.28 4.38 78.96 4.71 78.73 4.95C75.14 8.81 71.48 13.13 67.76 17.93C67.05 18.88 66.56 19.51 66.3 19.82L59.44 28.01L59.36 28.12C58.75 28.84 58.11 29.19 57.45 29.19L55.7 29.19C55.52 29.19 55.38 29.16 55.26 29.09C55.14 29.02 55.09 28.95 55.09 28.88C55.09 28.37 56.48 26.51 59.24 23.29C62.01 20.07 65.91 15.78 70.96 10.43M38.24 20.56C37.33 21.24 36.37 21.99 35.37 22.85C34.36 23.7 33.79 24.13 33.65 24.13C33.56 24.13 33.51 24.1 33.46 24.03C33.42 23.97 33.4 23.87 33.4 23.75C33.4 23.52 33.92 22.97 34.97 22.09C36.02 21.22 37.75 19.88 40.16 18.09L52.73 3.97C52.91 3.76 53.08 3.62 53.23 3.55C53.37 3.48 53.55 3.45 53.76 3.45C54.16 3.45 54.5 3.5 54.76 3.6C55.01 3.71 55.14 3.85 55.14 4.01C55.14 4.13 55.12 4.23 55.07 4.32C55.02 4.41 54.91 4.53 54.74 4.71L40.21 21.69C39.16 22.92 38.35 24.03 37.8 25C37.24 25.96 36.96 26.74 36.96 27.31C36.96 27.66 37.02 27.91 37.15 28.06C37.27 28.22 37.48 28.29 37.75 28.29C38.4 28.29 39.17 28.09 40.07 27.66C40.97 27.25 42.07 26.58 43.35 25.68C44.17 25.09 45.01 24.43 45.86 23.72C46.71 23 47.19 22.64 47.29 22.64C47.4 22.64 47.49 22.67 47.54 22.73C47.59 22.8 47.63 22.89 47.64 23.02C47.64 23.27 46.86 24.03 45.28 25.3L45.18 25.38C43.62 26.62 42.14 27.6 40.74 28.3C39.34 29.01 38.19 29.36 37.3 29.36C36.65 29.36 36.15 29.19 35.79 28.84C35.42 28.49 35.24 28.01 35.24 27.39C35.24 26.58 35.49 25.62 35.97 24.51C36.47 23.4 37.22 22.09 38.24 20.56M22.4 26.94C21.57 27.76 20.79 28.37 20.08 28.79C19.36 29.19 18.73 29.4 18.17 29.4C17.58 29.4 17.13 29.19 16.8 28.75C16.48 28.32 16.32 27.71 16.32 26.91C16.32 25.98 16.55 25.08 17 24.23C17.44 23.38 18.13 22.55 19.07 21.74C20.27 20.66 21.57 19.81 22.95 19.17C24.33 18.53 25.55 18.22 26.61 18.22C27.21 18.22 27.65 18.33 27.94 18.56C28.22 18.78 28.37 19.15 28.42 19.66C28.61 19.44 28.84 19.22 29.1 19.01C29.35 18.78 29.65 18.58 29.97 18.38C30.07 18.38 30.24 18.38 30.45 18.36C30.65 18.36 30.81 18.35 30.91 18.35C31.4 18.35 31.75 18.38 31.96 18.46C32.16 18.53 32.27 18.66 32.27 18.85C32.27 19.01 31.95 19.38 31.3 19.96C30.95 20.26 30.68 20.51 30.47 20.69C28.59 22.46 27.13 23.98 26.07 25.23C25.01 26.48 24.48 27.32 24.48 27.77C24.48 27.95 24.52 28.08 24.59 28.14C24.67 28.22 24.81 28.25 25.02 28.25C25.63 28.25 26.54 27.96 27.74 27.36C28.94 26.77 30.22 25.96 31.55 24.94C32.11 24.53 32.71 24.03 33.36 23.47C34 22.92 34.39 22.64 34.51 22.64C34.61 22.64 34.69 22.67 34.75 22.75C34.82 22.81 34.84 22.9 34.84 23.02C34.84 23.27 34.06 24.03 32.5 25.3L32.39 25.38C30.85 26.62 29.36 27.6 27.94 28.3C26.53 29.01 25.37 29.36 24.48 29.36C23.83 29.36 23.32 29.18 22.94 28.83C22.55 28.47 22.36 27.99 22.36 27.39C22.36 27.26 22.37 27.17 22.37 27.11C22.38 27.05 22.39 26.99 22.4 26.94M22.24 26.05L27.06 20.92C27.24 20.72 27.38 20.53 27.49 20.34C27.59 20.14 27.64 19.96 27.64 19.79C27.64 19.65 27.59 19.53 27.49 19.46C27.39 19.37 27.26 19.33 27.09 19.33C26.62 19.33 26 19.53 25.22 19.92C24.45 20.32 23.65 20.86 22.85 21.55C21.52 22.65 20.42 23.8 19.56 25C18.69 26.21 18.26 27.09 18.26 27.64C18.26 27.84 18.31 27.99 18.43 28.11C18.56 28.24 18.71 28.29 18.88 28.29C19.26 28.29 19.75 28.09 20.36 27.69C20.97 27.3 21.59 26.75 22.24 26.05M6.36 26.93C5.52 27.76 4.74 28.37 4.03 28.79C3.32 29.19 2.68 29.4 2.12 29.4C1.54 29.4 1.08 29.19 0.76 28.75C0.44 28.32 0.28 27.71 0.28 26.91C0.28 25.98 0.5 25.08 0.95 24.23C1.4 23.37 2.09 22.55 3.03 21.74C4.24 20.66 5.54 19.81 6.92 19.17C8.3 18.53 9.5 18.22 10.53 18.22C11.14 18.22 11.58 18.33 11.86 18.54C12.13 18.76 12.3 19.13 12.37 19.66L25.13 3.95C25.26 3.77 25.41 3.64 25.56 3.56C25.72 3.48 25.91 3.45 26.15 3.45C26.6 3.45 26.96 3.5 27.25 3.6C27.54 3.71 27.68 3.85 27.68 4.01C27.68 4.13 27.66 4.23 27.61 4.32C27.57 4.41 27.47 4.53 27.3 4.71L9.71 25.59C9.27 26.08 8.95 26.51 8.75 26.88C8.54 27.25 8.43 27.54 8.43 27.77C8.43 27.95 8.47 28.08 8.55 28.14C8.62 28.22 8.77 28.25 8.97 28.25C9.59 28.25 10.5 27.95 11.7 27.36C12.9 26.76 14.17 25.96 15.51 24.94C16.07 24.53 16.67 24.03 17.31 23.47C17.96 22.92 18.34 22.64 18.46 22.64C18.56 22.64 18.64 22.67 18.71 22.75C18.77 22.81 18.8 22.9 18.8 23.02C18.8 23.27 18.02 24.03 16.45 25.3L16.35 25.38C14.79 26.63 13.29 27.62 11.88 28.34C10.46 29.04 9.31 29.4 8.43 29.4C7.79 29.4 7.27 29.22 6.89 28.86C6.51 28.49 6.31 28.01 6.31 27.39C6.31 27.26 6.32 27.17 6.33 27.11C6.34 27.05 6.34 26.99 6.36 26.93M6.19 26.05L9.71 22.32C9.8 22.22 9.95 22.08 10.15 21.88C11.11 20.84 11.59 20.14 11.59 19.79C11.59 19.65 11.54 19.53 11.45 19.46C11.35 19.37 11.22 19.33 11.05 19.33C10.58 19.33 9.95 19.53 9.17 19.92C8.4 20.32 7.61 20.86 6.8 21.55C5.47 22.65 4.38 23.8 3.51 25C2.65 26.21 2.21 27.09 2.21 27.64C2.21 27.84 2.27 27.99 2.39 28.11C2.5 28.24 2.65 28.29 2.84 28.29C3.22 28.29 3.7 28.09 4.31 27.69C4.92 27.3 5.55 26.75 6.19 26.05"/></svg>